<?xml version="1.0" encoding="UTF-8" standalone="no"?>
<!-- Created with Inkscape (http://www.inkscape.org/) -->

<svg
   xmlns:dc="http://purl.org/dc/elements/1.1/"
   xmlns:cc="http://creativecommons.org/ns#"
   xmlns:rdf="http://www.w3.org/1999/02/22-rdf-syntax-ns#"
   xmlns:svg="http://www.w3.org/2000/svg"
   xmlns="http://www.w3.org/2000/svg"
   xmlns:xlink="http://www.w3.org/1999/xlink"
   xmlns:sodipodi="http://sodipodi.sourceforge.net/DTD/sodipodi-0.dtd"
   xmlns:inkscape="http://www.inkscape.org/namespaces/inkscape"
   version="1.1"
   width="253.28711"
   height="122.88671"
   id="svg2985"
   sodipodi:docname="menulogo.svg"
   inkscape:version="0.92.0 r15299">
  <defs
     id="defs4537">
    <linearGradient
       inkscape:collect="always"
       id="linearGradient4575">
      <stop
         style="stop-color:#3f7d20;stop-opacity:1"
         offset="0"
         id="stop4571" />
      <stop
         style="stop-color:#34ab00;stop-opacity:0;"
         offset="1"
         id="stop4573" />
    </linearGradient>
    <linearGradient
       inkscape:collect="always"
       xlink:href="#linearGradient4575"
       id="linearGradient4577"
       x1="743.58447"
       y1="351.95142"
       x2="740.42041"
       y2="384.15555"
       gradientUnits="userSpaceOnUse" />
  </defs>
  <sodipodi:namedview
     pagecolor="#ffffff"
     bordercolor="#666666"
     borderopacity="1"
     objecttolerance="10"
     gridtolerance="10"
     guidetolerance="10"
     inkscape:pageopacity="0"
     inkscape:pageshadow="2"
     inkscape:window-width="1920"
     inkscape:window-height="1016"
     id="namedview4535"
     showgrid="false"
     inkscape:zoom="2.571875"
     inkscape:cx="109.82807"
     inkscape:cy="71.92941"
     inkscape:window-x="0"
     inkscape:window-y="27"
     inkscape:window-maximized="1"
     inkscape:current-layer="g4551"
     fit-margin-top="0"
     fit-margin-left="0"
     fit-margin-right="0"
     fit-margin-bottom="0" />
  <metadata
     id="metadata4531">
    <rdf:RDF>
      <cc:Work
         rdf:about="">
        <dc:title></dc:title>
        <dc:description></dc:description>
        <dc:subject>
          <rdf:Bag />
        </dc:subject>
        <dc:publisher>
          <cc:Agent
             rdf:about="http://www.openclipart.org">
            <dc:title></dc:title>
          </cc:Agent>
        </dc:publisher>
        <dc:creator>
          <cc:Agent>
            <dc:title></dc:title>
          </cc:Agent>
        </dc:creator>
        <dc:rights>
          <cc:Agent>
            <dc:title></dc:title>
          </cc:Agent>
        </dc:rights>
        <dc:date></dc:date>
        <dc:format>image/svg+xml</dc:format>
        <dc:type
           rdf:resource="http://purl.org/dc/dcmitype/StillImage" />
        <cc:license
           rdf:resource="http://creativecommons.org/licenses/by/4.0/" />
        <dc:language></dc:language>
      </cc:Work>
      <cc:License
         rdf:about="http://creativecommons.org/licenses/by/4.0/">
        <cc:permits
           rdf:resource="http://creativecommons.org/ns#Reproduction" />
        <cc:permits
           rdf:resource="http://creativecommons.org/ns#Distribution" />
        <cc:requires
           rdf:resource="http://creativecommons.org/ns#Notice" />
        <cc:requires
           rdf:resource="http://creativecommons.org/ns#Attribution" />
        <cc:permits
           rdf:resource="http://creativecommons.org/ns#DerivativeWorks" />
      </cc:License>
    </rdf:RDF>
  </metadata>
  <g
     id="g4551"
     transform="matrix(-1,0,0,1,856.90234,-274.00391)">
    <path
       id="path5877"
       d="m 603.61523,274.00391 v 2.01757 l 2.01758,-2.01757 z m 4.72071,0 -4.72071,4.72851 v 3.00391 l 7.73243,-7.73242 z m 5.94922,0 -10.66993,10.66992 v 2.90234 h 0.10938 l 0.3125,-0.3125 13.27539,-13.25976 z m 6.77539,0 -17.00977,17.00976 h -0.43555 v 2.13867 h 0.88477 0.44922 l 0.3125,-0.3125 18.83594,-18.83593 z m 5.8125,0 -22.11133,22.10937 h -1.14649 v 2.13867 h 1.59766 0.44922 l 0.3125,-0.3125 23.78711,-23.80078 h 55.76367 c -0.53508,0.6186 -0.875,1.43087 -0.875,2.32617 0,1.9328 1.51428,3.5 3.38672,3.5 1.87244,0 3.38867,-1.5672 3.38867,-3.5 0,-0.9593 -0.37557,-1.82867 -0.98047,-2.46093 z m 67.11133,0 -0.2461,19.94726 -3.60156,2.625 c -0.27848,-0.076 -0.57308,-0.125 -0.875,-0.125 -1.87248,0 -3.41211,1.5672 -3.41211,3.5 0,1.9328 1.53963,3.5 3.41211,3.5 1.8724,0 3.38867,-1.5672 3.38867,-3.5 0,-0.7777 -0.24699,-1.49342 -0.66211,-2.07422 l 3.47461,-2.5 0.42383,-0.3125 v -0.53711 l 0.22851,-20.52343 z m 18.16406,0 18.98828,18.97265 0.17578,1.9375 c -1.0912,0.5809 -1.84961,1.74391 -1.84961,3.09961 0,1.9328 1.515,3.48828 3.38672,3.48828 1.87744,0 3.38867,-1.55548 3.38867,-3.48828 0,-1.7239 -1.1979,-3.17349 -2.78906,-3.46289 l -0.19922,-2.13672 -0.0371,-0.375 -0.27539,-0.28711 -17.76367,-17.74804 z m 6.47851,0 20.71094,20.71093 v 5.47461 l -3.55078,3.54883 h -30.94922 l -2.02539,-2.01172 c 0.3018,-0.5233 0.48828,-1.12159 0.48828,-1.77539 0,-1.9328 -1.51631,-3.5 -3.38867,-3.5 -1.87244,0 -3.38672,1.5672 -3.38672,3.5 0,1.9328 1.51428,3.5 3.38672,3.5 0.46808,0 0.90718,-0.0984 1.3125,-0.27539 h 0.0254 l 2.38672,2.38867 0.3125,0.3125 h 0.45117 31.83594 0.45117 l 0.3125,-0.3125 4.16211,-4.1875 0.3125,-0.3125 v -0.45117 -6.34961 -0.44922 l -0.3125,-0.3125 -19.50391,-19.49804 z m 6.51953,0 21.16602,21.17187 v 1.05078 c -1.22124,0.531 -2.09961,1.77501 -2.09961,3.22461 0,1.9328 1.53967,3.5 3.41211,3.5 1.87244,0 3.38672,-1.5672 3.38672,-3.5 0,-1.6392 -1.08834,-3.00682 -2.5625,-3.38672 v -1.33789 -0.4375 l -0.3125,-0.3125 -19.9707,-19.97265 z m 7.94922,0 20.7168,20.71093 v 7.09961 l -9.3125,9.30078 h -5.34961 c -0.47088,-1.3468 -1.69435,-2.32617 -3.16211,-2.32617 -1.87244,0 -3.38867,1.5672 -3.38867,3.5 0,1.9328 1.51623,3.5 3.38867,3.5 1.5506,0 2.85876,-1.07041 3.26172,-2.53711 h 5.69922 0.45117 l 0.3125,-0.3125 9.9375,-9.91211 0.3125,-0.3125 v -0.45117 -8 -0.44922 l -0.3125,-0.3125 -19.51367,-19.49804 z m 5.94336,0 5.22266,5.22265 0.3125,0.3125 h 0.4375 11.875 c 0.29144,1.6262 1.66757,2.84961 3.32617,2.84961 1.8774,0 3.38672,-1.5672 3.38672,-3.5 0,-1.9328 -1.50932,-3.52539 -3.38672,-3.52539 -1.35184,0 -2.50754,0.85026 -3.05078,2.03906 h -11.69922 l -3.39648,-3.39843 z m 49.28906,0 7.09766,7.09765 0.3125,0.30078 h 0.4375 6.28711 c 0.36532,1.526 1.68431,2.67383 3.27539,2.67383 1.8724,0 3.38672,-1.55353 3.38672,-3.48633 0,-1.9328 -1.51432,-3.5 -3.38672,-3.5 -1.42788,0 -2.63903,0.88403 -3.13867,2.17383 H 796.625 l -5.26758,-5.25976 z m 18.60938,0 v 0.1582 0.3125 l 0.22461,0.20117 5.46289,5.46289 V 293.125 l -16.65039,16.625 h -25.13672 -0.3125 l -0.20117,0.20117 -20.47461,20.47461 H 664.3125 l -10.38672,-10.375 -0.22656,-0.22461 h -0.28711 -5.52539 l -1.36133,-1.36328 -0.20117,-0.19922 h -0.28711 -2.33789 c -0.163,-1.7755 -1.612,-3.16406 -3.375,-3.16406 -1.8724,0 -3.38672,1.5672 -3.38672,3.5 0,1.9328 1.51432,3.5 3.38672,3.5 1.5018,0 2.76833,-1.01611 3.21289,-2.41211 H 645.75 l 1.34961,1.36328 0.20117,0.19922 h 0.29883 5.5 l 10.40039,10.38867 0.19922,0.21094 h 0.3125 86.15039 0.28711 l 0.20117,-0.21094 20.48633,-20.46289 h 25.15039 0.28711 l 0.22656,-0.20117 17.04883,-17.0625 0.20117,-0.21094 v -0.30078 -13.53711 -0.30078 l -0.20117,-0.21289 -5.35742,-5.3457 z m 3.78516,0 5.01562,5.04687 v 14.98633 L 797,312.77539 h -25 -0.28711 l -0.22461,0.19922 -19.85156,19.88867 H 639.75 l -3.05078,-3.0625 -0.19922,-0.20117 h -0.28711 -32.59766 v 1.42578 h 32.29688 l 3.03711,3.0625 0.22656,0.19922 h 0.28711 112.4375 0.28711 l 0.22461,-0.19922 19.875,-19.875 h 25.02539 0.28711 l 0.20117,-0.22461 19.16211,-19.15039 0.19922,-0.19922 v -0.3125 -15.58789 -0.30078 l -0.19922,-0.21289 -4.23047,-4.2207 z m 3.85546,0 3.60938,3.60937 v 17.78711 L 797.73828,315.875 H 772.53711 772.25 l -0.19922,0.22461 -24.80078,24.77539 -0.19922,0.22461 v 0.28906 13.08594 l -2.01367,2 h -7.19922 L 736.23828,354.625 V 342.08789 341.75 l -0.25,-0.19922 -2.42578,-2.13867 -0.19922,-0.1875 H 733.09961 630.5 630.21289 l -0.22461,0.20117 -15.21289,15.22461 H 607.625 l -4.00977,-4.00391 v 2.00586 l 3.19727,3.19727 0.19922,0.22656 h 0.3125 7.76367 0.28711 l 0.22461,-0.22656 15.1875,-15.1875 h 102.03711 l 1.98828,1.75 v 12.48828 0.26172 l 0.17578,0.20117 2.01172,2.29883 0.21289,0.23828 h 0.3125 7.79883 0.3125 l 0.20117,-0.19922 2.41211,-2.42578 0.22461,-0.19922 v -0.28906 -13.09961 l 24.375,-24.38672 h 25.17578 0.28711 l 0.22461,-0.20117 20.88867,-20.875 L 819.625,296 v -0.28711 -18.41211 -0.28711 l -0.19922,-0.20117 -2.82031,-2.80859 z m 5.47852,0 1.63086,1.63476 v 20.41211 l -22.86328,22.86133 h -24.14844 -0.28906 l -0.22461,0.20117 -23.08789,23.09961 -0.22461,0.19922 v 0.30078 13.11328 l -3.5625,3.54883 h -11.1875 l -1.73633,-1.71289 v -13.17383 -0.28711 L 734.16211,344 l -1.79883,-1.79883 -0.22656,-0.22656 h -0.28711 -98.73633 -0.28906 l -0.22461,0.22656 -16.02539,16.01172 h -12.95899 v 1.42578 h 13.24805 0.29883 l 0.20117,-0.20117 16.03711,-16.03711 h 98.13672 l 1.40039,1.40039 v 13.15039 0.28711 l 0.19922,0.22461 2.13867,2.13672 0.22461,0.20117 h 0.28711 11.8125 0.28711 l 0.22656,-0.20117 3.96094,-3.98633 0.20117,-0.20117 v -0.3125 -13.08594 l 22.6875,-22.67578 h 24.17383 0.28906 l 0.22461,-0.22461 23.25,-23.23828 0.21289,-0.22461 v -0.28711 -21.03711 -0.28906 l -0.21289,-0.19922 -0.83008,-0.83398 z m 4.20898,0 0.1211,0.12109 v 23.61328 l -24.14844,24.17578 H 775.53711 775.25 l -0.22461,0.22461 -21.27539,21.28711 -0.19922,0.19922 v 0.28906 13.4375 l -4.86328,4.84961 h -17.28711 l -17.05078,-17.03711 -0.19922,-0.20117 H 713.83789 642 641.71289 l -0.20117,0.20117 -8.64844,8.61133 c -0.61776,-0.8477 -1.57974,-1.40039 -2.6875,-1.40039 -1.87236,0 -3.38867,1.5672 -3.38867,3.5 0,1.9328 1.51631,3.52539 3.38867,3.52539 1.87244,0 3.38672,-1.59259 3.38672,-3.52539 0,-0.2266 -0.0348,-0.44751 -0.0742,-0.66211 l 8.79883,-8.82422 h 71.28711 l 17.02539,17.03711 0.20117,0.19922 h 0.3125 17.875 0.3125 l 0.19922,-0.19922 5.25,-5.27539 0.22461,-0.19922 v -0.28711 -13.46289 l 20.875,-20.86328 H 800.5 h 0.3125 l 0.19922,-0.19922 24.60156,-24.59961 0.19922,-0.20117 v -0.28711 -24.04687 z m 3.02149,0 v 25.0957 l -25.38672,25.375 H 777.5 777.21289 l -0.20117,0.20117 L 756.6875,345 l -0.19922,0.20117 v 0.28711 13.94922 l -6.07617,6.08789 H 728.6875 l -16.84961,-16.84961 -0.20117,-0.20117 H 711.34961 647.80078 647.5 l -0.19922,0.20117 -6.32617,6.33789 c -0.48104,-0.2708 -1.01249,-0.45117 -1.59961,-0.45117 -1.87236,0 -3.38672,1.5672 -3.38672,3.5 0,1.9328 1.51436,3.5 3.38672,3.5 1.8724,0 3.38672,-1.5672 3.38672,-3.5 0,-0.801 -0.2731,-1.5354 -0.71094,-2.125 l 6.0625,-6.03711 h 62.92383 L 727.875,366.75 l 0.19922,0.20117 h 0.3125 22.3125 0.28906 l 0.22461,-0.20117 6.48633,-6.51172 0.21289,-0.20117 v -0.3125 -13.9375 l 19.88867,-19.88672 h 24.39844 0.28906 l 0.22461,-0.21289 25.77539,-25.78711 0.22461,-0.19922 v -0.3125 -25.38476 z m 2.65039,0 v 26.1582 l -26.78711,26.78906 h -23.6875 -0.28711 l -0.22656,0.19922 -19.73633,19.76172 -0.22461,0.20117 v 0.29883 13.01367 l -7.15039,7.15039 h -24.5625 L 710.5,350.77539 l -0.22461,-0.19922 h -0.28711 -53.90039 -0.28711 l -0.22656,0.19922 -13.91211,13.90039 c -0.47784,-0.2617 -0.99774,-0.42578 -1.57422,-0.42578 -1.87236,0 -3.38867,1.5672 -3.38867,3.5 0,1.9328 1.51631,3.5 3.38867,3.5 1.87248,0 3.41211,-1.5672 3.41211,-3.5 0,-0.8108 -0.28604,-1.54352 -0.73828,-2.13672 L 656.34961,352 h 53.34961 L 726.5,368.80078 726.72461,369 h 0.28711 25.11328 0.28711 l 0.20117,-0.19922 7.59961,-7.59961 L 760.41211,361 v -0.28711 -12.98828 L 779.75,328.375 h 23.6875 0.3125 l 0.19922,-0.22461 27.21289,-27.17578 0.20117,-0.19922 v -0.3125 -26.45898 z m 3.53711,0 V 309.375 l -8.48633,8.48828 -0.20117,0.19922 v 0.28906 28.29883 l -12.69922,12.70117 h -11.27539 -0.28711 l -0.20117,0.19922 -16.5625,16.5625 -0.19922,0.19922 v 0.28906 20.28906 h 1.42578 V 376.91406 L 801.125,360.77539 h 11.27539 0.28711 l 0.19922,-0.19922 13.10156,-13.09961 0.22461,-0.22656 v -0.28711 -28.32422 l 8.48633,-8.48828 0.20117,-0.19922 v -0.28711 -35.66015 z m 3.1875,0 v 36.54687 l -8.46289,8.48828 L 828,319.23828 v 0.30078 27.9375 l -14.34961,14.34961 h -10.83789 -0.28711 l -0.20117,0.20117 -15.63672,15.63672 -0.19922,0.21289 v 0.28711 18.72656 h 1.42383 V 378.47656 L 803.125,363.25195 h 10.8125 0.3125 l 0.19922,-0.20117 14.75,-14.75 0.22656,-0.22461 v -0.28711 -27.96289 l 8.46094,-8.47461 0.20117,-0.19922 v -0.28906 -36.85937 z m 14.77539,0 v 71.50976 l -3.5,3.5 h -15.66211 -1.47461 l -1.03906,1.04883 -15.13672,15.125 h -8.63672 -1.47656 l -1.04883,1.05078 -10.5625,10.5625 -1.05078,1.04883 v 1.46289 17.57812 h 7.13867 v -16.10351 l 8.46094,-8.46094 h 8.65039 1.48828 l 1.02539,-1.05078 15.13672,-15.13672 h 15.66211 1.48828 l 1.02539,-1.03906 4.97656,-4.97656 v -76.11914 z m -220.02539,2.60937 -0.3125,0.3125 -24.57422,24.5625 h -2.91016 v 2.13867 h 3.35938 0.45117 l 0.29883,-0.3125 24.58789,-24.5625 h 47.90039 l 4.5,4.5 c -0.3488,0.5501 -0.55078,1.21683 -0.55078,1.92383 0,1.9328 1.51631,3.5 3.38867,3.5 1.87244,0 3.41211,-1.5672 3.41211,-3.5 0,-1.9327 -1.53967,-3.5 -3.41211,-3.5 -0.41016,0 -0.80034,0.0886 -1.16406,0.22656 l -4.96094,-4.97656 -0.3125,-0.3125 h -0.45117 -48.79883 z m 1.125,3.98828 -0.21289,0.22461 -24.77344,24.77539 h -3.93555 v 1.4375 h 4.22266 0.29883 l 0.20117,-0.21289 24.79883,-24.79883 h 26.625 l 36.01367,36.01172 0.19922,0.22461 h 0.3125 48.6875 0.3125 l 0.20117,-0.22461 14.07422,-14.0625 0.19922,-0.22461 v -0.28711 -11 l 3.15039,-3.16406 h 9.73828 l 3.78711,3.78906 c -0.30096,0.5234 -0.48828,1.11974 -0.48828,1.77344 0,1.9328 1.51143,3.5 3.38867,3.5 1.87176,0 3.38672,-1.5672 3.38672,-3.5 0,-1.9328 -1.51496,-3.5 -3.38672,-3.5 -0.73244,0 -1.41125,0.24519 -1.96289,0.65039 l -3.94922,-3.94922 -0.20117,-0.20117 h -0.3125 -10.28711 -0.30078 l -0.19922,0.20117 -3.58789,3.57422 -0.19922,0.22461 v 0.28906 11.02344 l -13.65039,13.66406 h -48.11328 l -36.01172,-36.01367 -0.19922,-0.22461 h -0.3125 -27.22656 z m 4.90039,3.5 c -1.8724,0 -3.38672,1.5672 -3.38672,3.5 0,1.9328 1.51432,3.5 3.38672,3.5 0.8468,0 1.60578,-0.3454 2.19922,-0.875 l 3.83789,3.8125 0.20117,0.22461 h 0.28711 14.97461 l 27.875,27.875 0.19922,0.20117 h 0.3125 58.36328 0.28711 l 0.20117,-0.20117 20.13672,-20.13672 h 19.07422 0.30078 l 0.21289,-0.20117 0.76172,-0.76172 c 0.3654,0.1377 0.75187,0.22461 1.16211,0.22461 1.87244,0 3.38867,-1.5672 3.38867,-3.5 0,-1.9328 -1.51623,-3.5 -3.38867,-3.5 -1.87236,0 -3.41211,1.5672 -3.41211,3.5 0,0.9664 0.38176,1.84161 1,2.47461 l -0.3125,0.33789 h -19.07422 -0.3125 l -0.20117,0.21289 -20.11133,20.125 h -57.8125 l -27.84961,-27.875 -0.22656,-0.19922 h -0.28711 -14.94922 l -3.76367,-3.76367 c 0.20084,-0.4473 0.3125,-0.94881 0.3125,-1.47461 0,-1.9328 -1.51424,-3.5 -3.38672,-3.5 z m 9.33789,0.25 c -1.70956,0.1793 -3.0625,1.688 -3.0625,3.5 0,1.9328 1.53975,3.5 3.41211,3.5 1.87248,0 3.38672,-1.5672 3.38672,-3.5 0,-1.9328 -1.51424,-3.5 -3.38672,-3.5 -0.117,0 -0.23565,-0.012 -0.34961,0 z m 151.83789,0 c -1.70956,0.1793 -3.0625,1.688 -3.0625,3.5 0,0.5968 0.16859,1.1334 0.42383,1.625 l -2.13672,2.11328 -0.20117,0.19922 v 0.28711 8.1875 l -3.58594,3.58789 h -22.8125 -0.30078 l -0.21289,0.19922 -19.57422,19.58789 h -73.09961 l -26.45117,-26.44922 -0.22461,-0.20117 h -0.28711 -5.46289 c -0.42432,-1.4312 -1.71212,-2.47461 -3.23828,-2.47461 -1.87244,0 -3.38672,1.5672 -3.38672,3.5 0,1.9328 1.51428,3.48828 3.38672,3.48828 1.74052,0 3.1586,-1.34479 3.35156,-3.08789 h 5.07422 l 26.42578,26.44922 0.22461,0.20117 h 0.28711 73.67578 0.3125 l 0.19922,-0.20117 19.61328,-19.58594 h 22.8125 0.28711 l 0.19922,-0.20117 4.01367,-4.01172 0.19922,-0.20117 v -0.28711 -8.1875 l 1.80078,-1.79883 c 0.57556,0.4653 1.31189,0.76172 2.09961,0.76172 1.8724,0 3.38672,-1.5672 3.38672,-3.5 0,-1.9328 -1.51432,-3.5 -3.38672,-3.5 -0.11704,0 -0.23561,-0.012 -0.34961,0 z m 9.54883,2.65039 c -1.8724,0 -3.40039,1.5672 -3.40039,3.5 0,0.8057 0.26965,1.54522 0.71289,2.13672 l -14.08789,14.08789 H 769.5 769.21289 l -0.22461,0.19922 -20.10156,20.11328 h -76.08594 l -24.20117,-24.19922 -0.22461,-0.20117 h -0.28711 -20.70117 -0.28711 l -0.22461,0.20117 -20.75,20.75 h -2.50977 v 1.42383 h 2.82227 0.28711 l 0.20117,-0.22461 20.72461,-20.72461 h 20.15039 l 24.17383,24.1875 0.22461,0.21289 h 0.28906 76.69922 0.28711 l 0.22461,-0.21289 20.10156,-20.09961 h 21.89844 0.28906 l 0.19922,-0.20117 14.375,-14.375 c 0.47536,0.262 1.02325,0.42578 1.59961,0.42578 1.8724,0 3.38867,-1.5672 3.38867,-3.5 0,-1.9328 -1.51627,-3.5 -3.38867,-3.5 z m -125.9375,1.9375 c -1.87248,0 -3.38672,1.5672 -3.38672,3.5 0,1.9328 1.51424,3.5 3.38672,3.5 1.8724,0 3.38867,-1.5672 3.38867,-3.5 0,-1.9328 -1.51627,-3.5 -3.38867,-3.5 z m 83.45117,2.67383 c -1.70956,0.1793 -3.05078,1.688 -3.05078,3.5 0,1.9328 1.52795,3.5 3.40039,3.5 1.8724,0 3.38672,-1.5672 3.38672,-3.5 0,-1.9328 -1.51432,-3.5 -3.38672,-3.5 -0.117,0 -0.23569,-0.012 -0.34961,0 z m -136.23828,1.20117 c -1.87236,0 -3.38672,1.5672 -3.38672,3.5 0,0.4581 0.0816,0.88631 0.23633,1.28711 l -22.4375,22.46289 h -0.23438 v 1.42383 h 0.52149 0.30078 l 0.19922,-0.19922 22.46289,-22.46289 c 0.60776,0.5998 1.42981,0.98828 2.33789,0.98828 1.87248,0 3.38672,-1.5672 3.38672,-3.5 0,-1.9328 -1.51424,-3.5 -3.38672,-3.5 z m 89.97461,0.73633 c -1.70956,0.1793 -3.02539,1.688 -3.02539,3.5 0,1.9328 1.51623,3.5 3.38867,3.5 1.87244,0 3.38672,-1.5672 3.38672,-3.5 0,-1.9328 -1.51428,-3.5 -3.38672,-3.5 -0.117,0 -0.24936,-0.012 -0.36328,0 z m -87.0625,15.97461 v 0.002 c -1.87244,0 -3.40039,1.5672 -3.40039,3.5 0,0.6893 0.18899,1.3335 0.52539,1.875 L 617.9375,326.4395 h -14.32227 v 1.42383 h 14.63477 0.28711 l 0.22461,-0.22461 11.70117,-11.71289 h 0.0234 c 0.54128,0.3705 1.16784,0.59961 1.86328,0.59961 1.87236,0 3.38672,-1.5672 3.38672,-3.5 0,-1.9328 -1.51436,-3.5 -3.38672,-3.5 z m 17.67578,0.96289 c -1.87236,0 -3.38867,1.5672 -3.38867,3.5 0,1.9328 1.51631,3.5 3.38867,3.5 1.87244,0 3.38672,-1.5672 3.38672,-3.5 0,-1.9328 -1.51428,-3.5 -3.38672,-3.5 z m 165.19922,11.16406 c -1.986,0 -3.58789,1.60004 -3.58789,3.58594 0,1.986 1.60189,3.61328 3.58789,3.61328 0.7956,0 1.5294,-0.27269 2.125,-0.71289 L 821,331.78906 v 13.78711 l -10.59961,10.58789 h -10.61328 -0.3125 l -0.19922,0.19922 -18.30078,18.30078 -0.19922,0.19922 v 0.28906 21.73828 h 1.4375 v -21.42578 l 17.83789,-17.875 H 810.69922 811 l 0.19922,-0.22656 11.02539,-11 0.20117,-0.19922 v -0.3125 -14.34961 -0.28711 l -0.20117,-0.22656 -3.92383,-3.92383 c 0.32372,-0.5407 0.53711,-1.15317 0.53711,-1.82617 0,-1.9859 -1.62724,-3.58594 -3.61328,-3.58594 z m -165.6875,1.67383 c -1.87236,0 -3.38672,1.55548 -3.38672,3.48828 0,1.9328 1.51436,3.5 3.38672,3.5 1.87248,0 3.38867,-1.5672 3.38867,-3.5 0,-1.9328 -1.51619,-3.48828 -3.38867,-3.48828 z m 165.6875,7.38867 c -1.986,0 -3.58789,1.62543 -3.58789,3.61133 0,0.5513 0.14404,1.07121 0.36328,1.53711 l -3.61328,3.61328 -0.19922,0.19922 v 0.28906 4.75 l -5.23828,5.23633 h -6.48633 -0.28711 l -0.22656,0.20117 -21.22461,21.26172 -0.22461,0.19922 v 0.28906 24.98828 h 1.42578 v -24.67578 l 20.83594,-20.83789 h 6.47656 0.3125 l 0.19922,-0.22461 5.63672,-5.63867 0.22656,-0.19922 v -0.28711 -4.77539 l 3.25,-3.25 c 0.63236,0.5594 1.44769,0.91211 2.36133,0.91211 1.98604,0 3.61328,-1.60189 3.61328,-3.58789 0,-1.9859 -1.62724,-3.61133 -3.61328,-3.61133 z m -19.25,0.1875 c -1.62132,0 -2.99842,1.06461 -3.44922,2.53711 h -14.01367 -0.29883 L 778,333.63867 l -14.6875,14.6875 -0.19922,0.22461 v 0.28906 15.14844 l -11.5,11.5 -0.20117,0.22656 v 0.28711 20.88867 h 1.42578 v -20.60156 l 11.5,-11.5 0.19922,-0.19922 v -0.3125 -15.125 l 14.28711,-14.28906 h 13.5625 c 0.18612,1.8148 1.72605,3.23828 3.58789,3.23828 1.98596,0 3.58789,-1.62728 3.58789,-3.61328 0,-1.9859 -1.60193,-3.58594 -3.58789,-3.58594 z m 35.70117,1.79883 v 13.52539 h 13.52344 v -13.52539 z m -203.80078,3.21289 -0.22461,0.22461 -11.61328,11.59961 H 605.4375 l -1.82227,-1.8164 v 2.00781 l 1.02149,1.02148 0.20117,0.21289 h 0.28711 11.22461 0.30078 l 0.19922,-0.21289 11.625,-11.61328 h 109.75 l 3.27539,3.27539 v 6.83789 c -1.56044,0.3924 -2.72461,1.79401 -2.72461,3.47461 0,1.986 1.62593,3.58789 3.61133,3.58789 1.98944,0 3.58789,-1.60189 3.58789,-3.58789 0,-1.8074 -1.31139,-3.28391 -3.04883,-3.53711 v -7.0625 -0.3125 l -0.22656,-0.20117 -3.67383,-3.67383 -0.20117,-0.22461 h -0.28711 -110.375 z m -24.25977,0.76563 v 2.01953 l 1.19727,1.20312 c -0.35512,0.5535 -0.5625,1.2235 -0.5625,1.9375 0,1.9328 1.51432,3.5 3.38672,3.5 1.8724,0 3.38867,-1.5672 3.38867,-3.5 0,-1.9328 -1.51627,-3.5 -3.38867,-3.5 -0.66732,0 -1.27471,0.219 -1.79883,0.5625 z m 198.68555,0.54492 c -1.98608,0 -3.58789,1.62738 -3.58789,3.61328 0,0.7338 0.21193,1.40721 0.58789,1.97461 l -27.58789,27.61328 -0.20117,0.19922 v 0.28711 25.97851 h 1.42578 v -25.67773 l 27.38672,-27.38672 c 0.57024,0.3794 1.23896,0.59961 1.97656,0.59961 1.98592,0 3.61133,-1.60189 3.61133,-3.58789 0,-1.9859 -1.62541,-3.61328 -3.61133,-3.61328 z m 13.02344,2.41406 c -1.98604,0 -3.59961,1.60004 -3.59961,3.58594 0,0.8689 0.31501,1.63917 0.82617,2.26367 l -7.63867,7.65039 h -6.71289 -0.3125 l -0.19922,0.19922 -19.33789,19.33789 -0.22461,0.22461 v 0.28711 23.70312 h 1.42383 V 373.5 l 18.92578,-18.9375 h 6.75 0.28711 l 0.20117,-0.22461 7.96094,-7.9375 c 0.4946,0.2594 1.05319,0.42578 1.65039,0.42578 1.98604,0 3.59961,-1.61556 3.59961,-3.60156 0,-1.9859 -1.61357,-3.58594 -3.59961,-3.58594 z m -37.66211,1.94922 c -1.98604,0 -3.61133,1.62738 -3.61133,3.61328 0,1.5392 0.97118,2.83881 2.33594,3.34961 v 7.8125 l -10.51172,10.5 -0.19922,0.22461 v 0.28711 29.51562 h 1.42383 v -29.25195 l 10.51367,-10.48828 0.19922,-0.22461 v -0.28711 -7.85156 c 1.91048,-0.084 3.4375,-1.65404 3.4375,-3.58594 0,-1.9859 -1.60185,-3.61328 -3.58789,-3.61328 z m 8.65039,0.1875 c -1.98596,0 -3.61328,1.60199 -3.61328,3.58789 0,1.7922 1.30787,3.2874 3.02539,3.5625 v 2.5625 l -16.84961,16.82422 -0.19922,0.22461 v 0.28906 28.06445 h 1.4375 v -27.77734 l 16.83594,-16.84961 0.20117,-0.20117 v -0.3125 -2.875 c 1.5794,-0.3809 2.75,-1.81462 2.75,-3.51172 0,-1.9859 -1.60185,-3.58789 -3.58789,-3.58789 z m -58.75,5.47461 c -1.98596,0 -3.59961,1.60199 -3.59961,3.58789 0,1.986 1.61365,3.61328 3.59961,3.61328 1.98596,0 3.58789,-1.62728 3.58789,-3.61328 0,-1.9859 -1.60189,-3.58789 -3.58789,-3.58789 z m -65.57422,9.5 -0.3125,0.3125 -15.97656,15.97461 h -9.22461 l -3.52539,-3.52344 c 0.38188,-0.5663 0.61328,-1.257 0.61328,-2 0,-1.9328 -1.51428,-3.5 -3.38672,-3.5 -1.87236,0 -3.38867,1.5672 -3.38867,3.5 0,1.9328 1.51631,3.48633 3.38867,3.48633 0.37504,0 0.7255,-0.0578 1.0625,-0.17383 l 4.03711,4.01172 0.3125,0.33789 h 0.4375 10.125 0.4375 l 0.3125,-0.33789 15.97461,-15.94922 h 44.46289 l 8.71289,8.71094 c -0.28792,0.5168 -0.47656,1.10308 -0.47656,1.73828 0,1.986 1.60169,3.61328 3.58789,3.61328 1.98592,0 3.61328,-1.62728 3.61328,-3.61328 0,-1.9859 -1.62736,-3.58789 -3.61328,-3.58789 -0.56232,0 -1.07579,0.1459 -1.54883,0.375 l -9.07617,-9.0625 -0.3125,-0.3125 h -0.44922 -45.33789 z m 176.32422,1.80078 c -3.35652,0 -6.07422,2.7061 -6.07422,6.0625 0,3.3565 2.7177,6.08789 6.07422,6.08789 3.35652,0 6.08789,-2.73139 6.08789,-6.08789 0,-3.3564 -2.73137,-6.0625 -6.08789,-6.0625 z m -163.22461,3.38672 -0.3125,0.3125 -14.34961,14.375 h -28.47656 l -7.83594,-7.84961 c 0.14984,-0.3953 0.23633,-0.81122 0.23633,-1.26172 0,-1.9328 -1.51428,-3.5 -3.38672,-3.5 -1.87244,0 -3.38867,1.5672 -3.38867,3.5 0,1.9328 1.51623,3.48633 3.38867,3.48633 0.66736,0 1.28846,-0.20533 1.8125,-0.54883 l 8,7.97461 0.3125,0.33789 h 0.4375 29.32422 0.45117 l 0.3125,-0.33789 14.375,-14.34961 h 11.47461 l 32.83203,32.81445 h 3.00781 L 688.66211,362.25 l -0.3125,-0.3125 h -0.44922 -12.36328 z m -71.47266,2.9375 v 2.32812 l 15.09766,15.09766 0.3125,0.3125 h 0.44922 50.67578 0.4375 l 0.3125,-0.3125 10.33789,-10.3125 c 0.55372,0.3465 1.201,0.54883 1.89844,0.54883 1.37184,0 2.5603,-0.77711 3.16406,-1.91211 l 26.26563,26.26562 h 3.03125 l -29.07227,-29.06445 c -0.47032,-1.4326 -1.79655,-2.47656 -3.38867,-2.47656 -1.98468,0 -3.61133,1.60319 -3.61133,3.58789 0,0.5071 0.12146,0.98678 0.3125,1.42578 l -10.11328,10.11133 h -49.79883 l -15.28906,-15.28711 -0.3125,-0.3125 H 603.875 Z m 0,5.75 v 1.42578 h 0.48438 l 13.66211,13.6875 0.21289,0.19922 h 0.30078 58.59961 0.28711 l 0.20117,-0.19922 4.32422,-4.32617 c 0.44408,0.1941 0.93478,0.3125 1.44922,0.3125 0.0232,0 0.0392,4e-4 0.0625,0 v 3.96289 0.28711 l 0.20117,0.20117 10.71484,10.71484 h 2 L 684.625,385.40039 v -4.01172 c 1.23776,-0.5651 2.09961,-1.7979 2.09961,-3.25 0,-1.9847 -1.60309,-3.58789 -3.58789,-3.58789 -1.98468,0 -3.61133,1.60319 -3.61133,3.58789 0,0.9416 0.38993,1.78453 0.98633,2.42383 l -3.94922,3.95117 H 618.58789 L 604.875,370.82617 604.67578,370.625 h -0.28906 z m 253.28711,1.76172 -0.31445,0.31445 h -28.86328 -0.41211 l -0.3125,0.3125 -15.17578,14.97461 c -1.39384,0.4981 -2.38672,1.84801 -2.38672,3.41211 0,1.9847 1.59853,3.58789 3.58789,3.58789 1.98412,0 3.58789,-1.60319 3.58789,-3.58789 0,-1.3949 -0.80337,-2.5872 -1.96289,-3.1875 l 13.52539,-13.375 h 28.72656 z m -47.37695,1.98828 c -1.81212,0.1841 -3.22461,1.72729 -3.22461,3.58789 0,0.2252 0.0228,0.42322 0.0625,0.63672 l -3.70117,3.70117 -0.53711,0.53711 v 0.73828 13.31445 h 3.5625 V 384.3125 l 2.98828,-2.98633 c 0.37728,0.1344 0.78702,0.22461 1.21094,0.22461 1.98476,0 3.60156,-1.60309 3.60156,-3.58789 0,-1.9847 -1.6168,-3.58789 -3.60156,-3.58789 -0.12404,0 -0.24053,-0.012 -0.36133,0 z m -90.36328,1.375 c -1.9862,0 -3.58789,1.62738 -3.58789,3.61328 0,1.986 1.60169,3.58789 3.58789,3.58789 0.33,0 0.65853,-0.0552 0.96289,-0.13867 l 14.0918,14.07812 h 5.04492 l -16.59961,-16.58984 c 0.0798,-0.2965 0.11328,-0.6156 0.11328,-0.9375 0,-1.9859 -1.62736,-3.61328 -3.61328,-3.61328 z m 110.80078,0.48828 -0.3125,0.3125 -7.08789,7.08789 -0.3125,0.3125 v 0.44922 3.05078 c -1.8214,0.173 -3.25,1.6942 -3.25,3.5625 0,1.9848 1.60313,3.58594 3.58789,3.58594 1.98472,0 3.58789,-1.60114 3.58789,-3.58594 0,-1.3244 -0.72402,-2.48006 -1.78906,-3.10156 v -3.07422 l 6.46289,-6.44922 h 26.05273 v -2.15039 h -26.50195 z m 4.52539,5.4375 -0.33789,0.3125 -5.32617,5.32422 -0.3125,0.3125 v 0.45117 8.81445 h 2.13867 v -8.36523 l 4.69922,-4.71289 h 21.55273 v -2.13672 h -22.00195 z m 1.02344,3.61133 -0.3125,0.3125 -2.47461,2.45117 -0.3125,0.3125 v 0.44922 8.07812 h 2.13867 V 389.25 l 1.84961,-1.82422 h 20.50195 v -2.13867 h -20.95312 z m -231.89649,0.83594 v 2.00976 l 8.75391,8.75781 h 2.01758 z m 154.57227,3.32812 c -1.98472,0 -3.58789,1.60124 -3.58789,3.58594 0,1.9847 1.60317,3.58789 3.58789,3.58789 1.98476,0 3.61328,-1.60319 3.61328,-3.58789 0,-1.9847 -1.62852,-3.58594 -3.61328,-3.58594 z m -154.57227,0.38672 v 2.01563 l 5.03711,5.0371 h 2.01758 z m 235.34766,0.4375 v 6.61523 h 12.13672 v -6.61523 z m -235.34766,3.37695 v 2.02149 l 1.2168,1.21679 h 2.02149 z m 81.91016,0.21094 c -1.79281,0 -3.26154,1.31163 -3.53125,3.02734 h 7.0625 c -0.26966,-1.71579 -1.73846,-3.02734 -3.53125,-3.02734 z m -61.63867,0.5625 c -1.4289,0.14518 -2.60427,1.14029 -3.04297,2.46484 h 6.80664 c -0.47851,-1.42947 -1.8222,-2.46484 -3.41211,-2.46484 -0.12396,0 -0.23068,-0.012 -0.35156,0 z m 9.20117,1.08789 c -1.1455,0 -2.16086,0.54386 -2.82422,1.37695 h 5.64258 c -0.65623,-0.8354 -1.67241,-1.37695 -2.81836,-1.37695 z"
       style="color:#000000;font-style:normal;font-variant:normal;font-weight:normal;font-stretch:normal;font-size:medium;line-height:normal;font-family:Sans;-inkscape-font-specification:Sans;text-indent:0;text-align:start;text-decoration:none;text-decoration-line:none;letter-spacing:normal;word-spacing:normal;text-transform:none;writing-mode:lr-tb;direction:ltr;baseline-shift:baseline;text-anchor:start;display:inline;overflow:visible;visibility:visible;fill:url(#linearGradient4577);fill-opacity:1;fill-rule:nonzero;stroke:none;stroke-width:5.00031519;stroke-miterlimit:4;stroke-dasharray:none;stroke-opacity:1;marker:none;enable-background:accumulate"
       inkscape:connector-curvature="0" />
  </g>
  <flowRoot
     xml:space="preserve"
     id="flowRoot4553"
     style="font-style:normal;font-variant:normal;font-weight:normal;font-stretch:normal;font-size:40px;line-height:25px;font-family:Audiowide;-inkscape-font-specification:Audiowide;letter-spacing:0px;word-spacing:0px;fill:#000000;fill-opacity:1;stroke:none;stroke-width:1px;stroke-linecap:butt;stroke-linejoin:miter;stroke-opacity:1"
     transform="translate(-419.31392,-37.60051)"><flowRegion
       id="flowRegion4555"><rect
         id="rect4557"
         width="213.07414"
         height="55.212643"
         x="530.35236"
         y="129.86635" /></flowRegion><flowPara
       id="flowPara4559">MENU</flowPara><flowPara
       id="flowPara4561" /></flowRoot></svg>
